<svg aria-hidden="true" style="position: absolute; width: 0; height: 0; overflow: hidden;" version="1.1" xmlns="http://www.w3.org/2000/svg" xmlns:xlink="http://www.w3.org/1999/xlink">
<defs>
<symbol id="icon-paper" viewBox="0 0 42 32">
<title>paper</title>
<path d="M41.844 0.001l-41.173 9.174 6.713 8.056-7.384 3.804 1.119 10.965 12.531-9.174 5.147 3.357 23.048-26.181zM2.909 9.846l32.894-7.161-27.3 13.874-5.594-6.713zM23.048 10.518l-20.81 12.307-0.448 3.804-0.448-4.923 21.705-11.188zM2.685 29.538l0.895-6.042 5.818-3.58 3.357 2.238-10.070 7.384zM10.517 19.245l26.852-15.887-18.573 21.258-8.279-5.37z"></path>
</symbol>
<symbol id="icon-rock" viewBox="0 0 33 32">
<title>rock</title>
<path d="M27.783 9.778l-11.111-9.778-16.667 6.889 1.333 20.889 15.111 4.222h6.889l8.444-2.889 1.556-7.111-5.556-12.222zM31.116 20l-9.778-3.333-0.222-0.222-3.556-14 9.111 8 4.444 9.556zM16.45 30.667l-7.333-2 2.444-6.222 8.444-4.889h0.222l3.333 6.889-7.111 6.222zM13.561 14.444l-11.556-6.889 14-5.778-2.444 12.667zM14.45 15.556l2.222-12 3.333 12.889-7.556 4.222 2-5.111zM1.339 8.444l11.778 7.111-5.111 12.889-5.556-1.556-1.111-18.444zM23.116 30.667h-4.889l6.444-5.333 5.111 3.111-6.667 2.222zM30.894 27.778l-5.778-3.556-3.111-6 9.556 3.111 0.222 0.667-0.889 5.778z"></path>
</symbol>
<symbol id="icon-scissor" viewBox="0 0 35 32">
<title>scissor</title>
<path d="M17.643 21.016l0.519-0.692 16.432-5.016-3.113-3.113-10.205 2.941 5.881-9.34-1.903-5.708-11.243 16.951-3.805 0.865c-0.519-2.422-2.595-4.324-5.189-4.324-2.768 0-5.016 2.422-5.016 5.189s2.249 5.016 5.016 5.016c2.249 0 4.151-1.384 4.843-3.286l2.076-0.346-2.768 3.978c-1.038 0.865-1.73 2.076-1.73 3.459 0 2.422 1.903 4.324 4.324 4.324s4.324-1.903 4.324-4.324c0-1.903-1.211-3.459-2.941-3.978l1.903-2.595h2.595zM20.583 16.173l10.551-2.941 1.73 1.557-14.184 4.324 1.903-2.941zM5.016 22.919c-2.249 0-4.151-1.903-4.151-4.151s1.903-4.151 4.151-4.151c2.249 0 4.151 1.903 4.151 4.151 0.173 2.249-1.73 4.151-4.151 4.151zM10.205 19.632c0-0.346 0-0.519 0-0.865 0 0 0 0 0-0.173l3.113-0.692-0.692 1.211-2.422 0.519zM15.221 27.589c0 1.903-1.557 3.459-3.459 3.459s-3.459-1.557-3.459-3.459 1.557-3.459 3.459-3.459c2.076 0 3.459 1.557 3.459 3.459zM12.454 23.265c-0.173 0-0.346 0-0.519 0-0.346 0-0.692 0-1.038 0.173l14.184-21.275 1.211 3.632-9.167 14.356h-2.249l-2.422 3.113z"></path>
<path d="M5.016 15.654c-1.73 0-3.113 1.384-3.113 3.113s1.384 3.113 3.113 3.113c1.73 0 3.113-1.384 3.113-3.113 0.173-1.73-1.384-3.113-3.113-3.113zM5.016 21.016c-1.211 0-2.249-1.038-2.249-2.249s1.038-2.249 2.249-2.249c1.211 0 2.249 1.038 2.249 2.249s-0.865 2.249-2.249 2.249z"></path>
<path d="M9.34 27.589c0 1.384 1.211 2.595 2.595 2.595s2.595-1.211 2.595-2.595-1.211-2.595-2.595-2.595-2.595 1.211-2.595 2.595zM13.492 27.589c0 0.865-0.692 1.73-1.73 1.73-0.865 0-1.73-0.692-1.73-1.73 0-0.865 0.692-1.73 1.73-1.73s1.73 0.865 1.73 1.73z"></path>
</symbol>
</defs>
</svg>
